<svg xmlns="http://www.w3.org/2000/svg" version="1.1" xmlns:xlink="http://www.w3.org/1999/xlink" xmlns:svgjs="http://svgjs.dev/svgjs" width="128" height="128" viewBox="0 0 128 128"><g transform="matrix(0.8046875,0,0,0.8046875,12.203346320196609,17.75083180293222)"><svg viewBox="0 0 96 86" data-background-color="#ffffff" preserveAspectRatio="xMidYMid meet" height="114" width="128" xmlns="http://www.w3.org/2000/svg" xmlns:xlink="http://www.w3.org/1999/xlink"><g id="tight-bounds" transform="matrix(1,0,0,1,0.27649275010801944,0.3682666027963535)"><svg viewBox="0 0 95.481 85.36856445967821" height="85.36856445967821" width="95.481"><g><svg viewBox="0 0 95.481 85.36856445967821" height="85.36856445967821" width="95.481"><g><svg viewBox="0 0 95.481 85.36856445967821" height="85.36856445967821" width="95.481"><g id="textblocktransform"><svg viewBox="0 0 95.481 85.36856445967821" height="85.36856445967821" width="95.481" id="textblock"><g><svg viewBox="0 0 95.481 85.36856445967821" height="85.36856445967821" width="95.481"><g><svg viewBox="0 0 95.481 85.36856445967821" height="85.36856445967821" width="95.481"><g><svg xmlns="http://www.w3.org/2000/svg" xmlns:xlink="http://www.w3.org/1999/xlink" version="1.1" x="0" y="0" viewBox="13.902674234277693 17.71499999847626 72.22095359302389 64.57200000152375" enable-background="new 0 0 100 100" xml:space="preserve" height="85.36856445967821" width="95.481" class="icon-icon-0" data-fill-palette-color="accent" id="icon-0"><path d="M85.271 18.592C79.5 19.389 73.027 19.972 66.029 20.332L66.402 18.625A0.75 0.75 0 0 0 65.67 17.715H62.214A0.75 0.75 0 0 0 61.464 18.465V20.53A326 326 0 0 1 38.536 20.53V18.465A0.75 0.75 0 0 0 37.786 17.715H34.331A0.75 0.75 0 0 0 33.598 18.624L33.97 20.332C26.972 19.972 20.499 19.389 14.73 18.592A0.751 0.751 0 0 0 14.525 20.079C20.45 20.896 27.104 21.492 34.302 21.852L34.829 24.268H33.917A0.75 0.75 0 0 0 33.167 25.018C33.167 33.171 30.151 38.649 27.333 38.649A0.75 0.75 0 0 0 26.583 39.399V81.537C26.583 81.951 26.919 82.287 27.333 82.287H72.667A0.75 0.75 0 0 0 73.417 81.537V39.398A0.75 0.75 0 0 0 72.667 38.648C69.85 38.647 66.833 33.169 66.833 25.017A0.75 0.75 0 0 0 66.083 24.267H65.171L65.697 21.851C72.896 21.491 79.551 20.895 85.476 20.078A0.75 0.75 0 1 0 85.271 18.592M62.964 19.215H64.739L63.635 24.268H62.963zM38.536 22.031C42.3 22.164 46.147 22.238 50.001 22.238S57.7 22.164 61.464 22.031V24.267H60.419A0.75 0.75 0 0 0 59.669 25.017C59.669 29.723 55.333 33.552 50.003 33.552 44.671 33.552 40.335 29.723 40.335 25.017A0.75 0.75 0 0 0 39.585 24.267H38.536zM37.036 19.215V24.268H36.364L35.261 19.215zM71.917 80.786H28.083V79.22H71.917zM65.343 25.768C65.514 33.373 68.288 39.345 71.917 40.075V77.72H28.083V40.074C31.712 39.345 34.487 33.374 34.659 25.767H38.865C39.294 30.951 44.125 35.052 50.003 35.052 55.878 35.052 60.71 30.95 61.138 25.767H65.343zM56.491 50.439H53.225L55.536 44.958A0.752 0.752 0 0 0 54.845 43.916H47.11A0.75 0.75 0 0 0 46.369 44.551L44.768 54.822A0.75 0.75 0 0 0 44.946 55.43 0.72 0.72 0 0 0 45.525 55.687L47.951 55.637 46.231 65.586A0.748 0.748 0 0 0 47.597 66.125L57.118 51.6A0.748 0.748 0 0 0 56.491 50.439M48.325 62.279L49.585 54.997A0.752 0.752 0 0 0 48.845 54.119H48.83L46.39 54.169 47.753 45.416H53.716L51.404 50.898A0.752 0.752 0 0 0 52.095 51.939H55.103z" fill="#1ebbd7" data-fill-palette-color="accent"></path></svg></g></svg></g></svg></g></svg></g></svg></g><g></g></svg></g><defs></defs></svg><rect width="95.481" height="85.36856445967821" fill="none" stroke="none" visibility="hidden"></rect></g></svg></g></svg>