<svg xmlns="http://www.w3.org/2000/svg" version="1.1" xmlns:xlink="http://www.w3.org/1999/xlink" xmlns:svgjs="http://svgjs.dev/svgjs" width="1500" height="1500" viewBox="0 0 1500 1500"><rect width="1500" height="1500" fill="#ffffff"></rect><g transform="matrix(0.6666666666666666,0,0,0.6666666666666666,249.4691686653639,289.51935483870966)"><svg viewBox="0 0 270 248" data-background-color="#ffffff" preserveAspectRatio="xMidYMid meet" height="1377" width="1500" xmlns="http://www.w3.org/2000/svg" xmlns:xlink="http://www.w3.org/1999/xlink"><g id="tight-bounds" transform="matrix(1,0,0,1,0.1433244603517494,0.4000000000000057)"><svg viewBox="0 0 269.7133510792965 247.2" height="247.2" width="269.7133510792965"><g><svg viewBox="0 0 397.4975999999999 364.3179187340668" height="247.2" width="269.7133510792965"><g><rect width="397.4975999999999" height="8.09347077152803" x="0" y="192.43629562989608" fill="#000000" opacity="1" stroke-width="0" stroke="transparent" fill-opacity="1" class="rect-yte-0" data-fill-palette-color="primary" rx="1%" id="yte-0" data-palette-color="#1ebbd7"></rect></g><g><rect width="397.4975999999999" height="8.09347077152803" x="0" y="211.12331453169637" fill="#000000" opacity="1" stroke-width="0" stroke="transparent" fill-opacity="1" class="rect-yte-1" data-fill-palette-color="primary" rx="1%" id="yte-1" data-palette-color="#1ebbd7"></rect></g><g transform="matrix(1,0,0,1,0.9887999999999693,240.40388156376898)"><svg viewBox="0 0 395.52 123.91403717029775" height="123.91403717029775" width="395.52"><g id="textblocktransform"><svg viewBox="0 0 395.52 123.91403717029775" height="123.91403717029775" width="395.52" id="textblock"><g><svg viewBox="0 0 395.52 89.7469300587293" height="89.7469300587293" width="395.52"><g transform="matrix(1,0,0,1,0,0)"><svg width="395.52" viewBox="2.33 -33.13 187.28 42.510000000000005" height="89.7469300587293" data-palette-color="#1ebbd7"><path d="M13.55 0.55L13.55 0.55Q7.98 0.55 5.15-2.18 2.33-4.9 2.33-9.98L2.33-9.98 2.33-14.33Q2.33-19.48 4.95-22.26 7.58-25.05 12.63-25.05L12.63-25.05Q16.03-25.05 18.3-23.79 20.58-22.53 21.73-20.2 22.88-17.88 22.88-14.65L22.88-14.65 22.88-13.75Q22.88-12.95 22.81-12.15 22.75-11.35 22.65-10.58L22.65-10.58 18.93-10.58Q18.98-11.78 18.99-12.85 19-13.93 19-14.83L19-14.83Q19-17.05 18.29-18.59 17.57-20.13 16.16-20.94 14.75-21.75 12.63-21.75L12.63-21.75Q9.47-21.75 7.9-19.93 6.33-18.1 6.33-14.7L6.33-14.7 6.33-12.38 6.35-11.88 6.35-9.55Q6.35-8.03 6.8-6.8 7.25-5.58 8.21-4.69 9.18-3.8 10.66-3.34 12.15-2.88 14.2-2.88L14.2-2.88Q16.57-2.88 18.63-3.5 20.68-4.13 22.48-5.2L22.48-5.2 22.1-1.7Q20.48-0.68 18.32-0.06 16.18 0.55 13.55 0.55ZM21.8-13.63L21.8-10.58 4.45-10.58 4.45-13.63 21.8-13.63ZM49.62 0.55L49.62 0.55Q44.37 0.55 41.81-2.29 39.25-5.13 39.25-10.33L39.25-10.33 39.25-14.13Q39.25-19.35 41.82-22.16 44.4-24.98 49.62-24.98L49.62-24.98Q51.17-24.98 52.45-24.69 53.72-24.4 54.73-23.94 55.75-23.48 56.45-22.98L56.45-22.98 56.8-19.45Q55.62-20.35 54.01-20.98 52.4-21.6 50.22-21.6L50.22-21.6Q46.72-21.6 45.01-19.66 43.3-17.73 43.3-14.03L43.3-14.03 43.3-10.43Q43.3-6.8 45.01-4.85 46.72-2.9 50.22-2.9L50.22-2.9Q52.47-2.9 54.11-3.53 55.75-4.15 57.02-5.05L57.02-5.05 56.65-1.48Q55.55-0.73 53.77-0.09 52 0.55 49.62 0.55ZM80.42-15.8L80.42 0 76.39 0 76.57-5.93 76.42-6.55 76.42-14.33 76.44-15.75Q76.44-18.73 74.93-20.15 73.42-21.58 70.14-21.58L70.14-21.58Q67.52-21.58 65.33-20.83 63.14-20.08 61.44-19.07L61.44-19.07 61.82-22.53Q62.77-23.1 64.08-23.66 65.39-24.23 67.08-24.6 68.77-24.98 70.79-24.98L70.79-24.98Q73.42-24.98 75.26-24.34 77.09-23.7 78.23-22.5 79.37-21.3 79.89-19.6 80.42-17.9 80.42-15.8L80.42-15.8ZM67.99 0.53L67.99 0.53Q64.37 0.53 62.43-1.24 60.49-3 60.49-6.28L60.49-6.28 60.49-7Q60.49-10.38 62.58-12.04 64.67-13.7 69.22-14.35L69.22-14.35 76.94-15.45 77.17-12.5 69.72-11.43Q66.92-11.03 65.72-10.06 64.52-9.1 64.52-7.23L64.52-7.23 64.52-6.83Q64.52-4.9 65.71-3.88 66.89-2.85 69.27-2.85L69.27-2.85Q71.37-2.85 72.87-3.58 74.37-4.3 75.29-5.53 76.22-6.75 76.54-8.25L76.54-8.25 77.17-5.5 76.39-5.5Q76.04-3.9 75.08-2.53 74.12-1.15 72.39-0.31 70.67 0.53 67.99 0.53ZM95.27 0.5L95.27 0.5Q92.44 0.5 90.72-0.35 88.99-1.2 88.22-2.93 87.44-4.65 87.44-7.23L87.44-7.23 87.44-22.63 91.44-22.63 91.44-7.7Q91.44-5.3 92.54-4.16 93.64-3.03 96.24-3.03L96.24-3.03Q97.72-3.03 99.08-3.35 100.44-3.68 101.64-4.28L101.64-4.28 101.27-0.8Q100.09-0.2 98.52 0.15 96.94 0.5 95.27 0.5ZM101.39-24.05L101.02-20.8 83.44-20.8 83.44-24.05 101.39-24.05ZM91.52-31.03L91.34-23.65 87.47-23.65 87.44-30.5 91.52-31.03ZM124.61-15.8L124.61 0 120.59 0 120.76-5.93 120.61-6.55 120.61-14.33 120.64-15.75Q120.64-18.73 119.13-20.15 117.61-21.58 114.34-21.58L114.34-21.58Q111.71-21.58 109.53-20.83 107.34-20.08 105.64-19.07L105.64-19.07 106.01-22.53Q106.96-23.1 108.28-23.66 109.59-24.23 111.28-24.6 112.96-24.98 114.99-24.98L114.99-24.98Q117.61-24.98 119.45-24.34 121.29-23.7 122.43-22.5 123.56-21.3 124.09-19.6 124.61-17.9 124.61-15.8L124.61-15.8ZM112.19 0.53L112.19 0.53Q108.56 0.53 106.63-1.24 104.69-3 104.69-6.28L104.69-6.28 104.69-7Q104.69-10.38 106.78-12.04 108.86-13.7 113.41-14.35L113.41-14.35 121.14-15.45 121.36-12.5 113.91-11.43Q111.11-11.03 109.91-10.06 108.71-9.1 108.71-7.23L108.71-7.23 108.71-6.83Q108.71-4.9 109.9-3.88 111.09-2.85 113.46-2.85L113.46-2.85Q115.56-2.85 117.06-3.58 118.56-4.3 119.49-5.53 120.41-6.75 120.74-8.25L120.74-8.25 121.36-5.5 120.59-5.5Q120.24-3.9 119.28-2.53 118.31-1.15 116.59-0.31 114.86 0.53 112.19 0.53ZM134.96-33.13L134.96 0 130.94 0 130.94-33.13 134.96-33.13ZM151.38 0.63L151.38 0.63Q146.13 0.63 143.42-2.21 140.71-5.05 140.71-10.38L140.71-10.38 140.71-14.1Q140.71-19.4 143.43-22.23 146.16-25.05 151.38-25.05L151.38-25.05Q156.63-25.05 159.35-22.23 162.06-19.4 162.06-14.1L162.06-14.1 162.06-10.38Q162.06-5.05 159.35-2.21 156.63 0.63 151.38 0.63ZM151.38-2.68L151.38-2.68Q154.63-2.68 156.32-4.6 158.01-6.53 158.01-10.15L158.01-10.15 158.01-14.33Q158.01-17.93 156.32-19.84 154.63-21.75 151.38-21.75L151.38-21.75Q148.16-21.75 146.46-19.84 144.76-17.93 144.76-14.33L144.76-14.33 144.76-10.15Q144.76-6.53 146.46-4.6 148.16-2.68 151.38-2.68ZM177.16-7.3L177.16-7.3Q172.18-7.3 169.52-9.47 166.86-11.65 166.86-15.7L166.86-15.7 166.86-16.32Q166.86-18.85 167.89-20.73 168.93-22.6 171.21-23.66 173.48-24.73 177.16-24.83L177.16-24.83 189.61-25.23 189.61-22.03 182.26-22.28 182.23-22.1Q183.96-21.75 185.06-20.9 186.16-20.05 186.69-18.78 187.23-17.5 187.23-15.8L187.23-15.8 187.23-15.25Q187.23-11.38 184.68-9.34 182.13-7.3 177.16-7.3ZM176.98 6.15L176.98 6.15 177.56 6.15Q179.81 6.15 181.42 5.81 183.03 5.48 183.91 4.75 184.78 4.03 184.78 2.83L184.78 2.83 184.78 2.73Q184.78 1.33 183.77 0.59 182.76-0.15 180.31-0.38L180.31-0.38 173.41-1 174.56-1.05Q173.16-0.85 172.09-0.4 171.03 0.05 170.43 0.79 169.83 1.53 169.83 2.63L169.83 2.63 169.83 2.68Q169.83 3.95 170.71 4.73 171.58 5.5 173.18 5.83 174.78 6.15 176.98 6.15ZM177.48 9.38L177.48 9.38 176.76 9.38Q173.46 9.38 171.07 8.81 168.68 8.25 167.37 6.99 166.06 5.73 166.06 3.6L166.06 3.6 166.06 3.5Q166.06 2 166.77 1 167.48 0 168.69-0.58 169.91-1.15 171.41-1.35L171.41-1.35 171.38-1.5Q169.33-1.85 168.36-2.71 167.38-3.58 167.38-4.95L167.38-4.95 167.38-4.98Q167.38-5.93 167.82-6.6 168.26-7.28 169.14-7.68 170.03-8.08 171.41-8.18L171.41-8.18 171.41-8.68 176.06-7.5 174.16-7.55Q172.46-7.53 171.81-7.14 171.16-6.75 171.16-5.98L171.16-5.98 171.16-5.95Q171.16-5.13 172.08-4.7 173.01-4.28 175.23-4.03L175.23-4.03 181.16-3.43Q185.03-3.03 186.81-1.56 188.58-0.1 188.58 2.75L188.58 2.75 188.58 2.88Q188.58 5.15 187.23 6.6 185.88 8.05 183.41 8.71 180.93 9.38 177.48 9.38ZM177.11-10.3L177.11-10.3Q179.21-10.3 180.59-10.91 181.98-11.53 182.69-12.76 183.41-14 183.41-15.8L183.41-15.8 183.41-16.4Q183.41-18.15 182.72-19.38 182.03-20.6 180.66-21.24 179.28-21.88 177.21-21.88L177.21-21.88 177.06-21.88Q174.81-21.88 173.39-21.19 171.98-20.5 171.34-19.26 170.71-18.03 170.71-16.38L170.71-16.38 170.71-15.8Q170.71-14 171.42-12.78 172.13-11.55 173.56-10.93 174.98-10.3 177.11-10.3Z" opacity="1" transform="matrix(1,0,0,1,0,0)" fill="#000000" class="wordmark-text-0" data-fill-palette-color="primary" id="text-0"></path></svg></g></svg></g><g transform="matrix(1,0,0,1,75.54432000000001,110.93402631927388)"><svg viewBox="0 0 244.43135999999996 12.980010851023858" height="12.980010851023858" width="244.43135999999996"><g transform="matrix(1,0,0,1,0,0)"><svg width="244.43135999999996" viewBox="3.78 -33.48 798.35 42.41" height="12.980010851023858" data-palette-color="#4b91f1"><path d="M17.05 0L17.05 0 6.6 0 6.6-3.43 16.65-3.43Q19.9-3.43 21.26-4.81 22.63-6.2 22.63-8.65L22.63-8.65 22.63-9.55Q22.63-12.05 21.24-13.43 19.85-14.8 16.4-14.8L16.4-14.8 6.63-14.8 6.63-18.07 16.35-18.07Q19.43-18.07 20.74-19.41 22.05-20.75 22.05-23.13L22.05-23.13 22.05-23.58Q22.05-25.93 20.79-27.24 19.53-28.55 16.32-28.55L16.32-28.55 6.53-28.55 6.53-31.95 16.7-31.95Q21.8-31.95 24-29.93 26.2-27.9 26.2-24.23L26.2-24.23 26.2-23.73Q26.2-20.8 24.8-19.13 23.4-17.45 20.45-17.13L20.45-17.13 20.43-16.98Q23.8-16.48 25.33-14.63 26.85-12.78 26.85-9.47L26.85-9.47 26.85-8.45Q26.85-4.48 24.55-2.24 22.25 0 17.05 0ZM7.88-31.95L7.88 0 3.78 0 3.78-31.95 7.88-31.95ZM42.6 0.55L42.6 0.55Q37.02 0.55 34.2-2.18 31.37-4.9 31.37-9.98L31.37-9.98 31.37-14.33Q31.37-19.48 34-22.26 36.62-25.05 41.67-25.05L41.67-25.05Q45.07-25.05 47.35-23.79 49.62-22.53 50.77-20.2 51.92-17.88 51.92-14.65L51.92-14.65 51.92-13.75Q51.92-12.95 51.86-12.15 51.8-11.35 51.7-10.58L51.7-10.58 47.97-10.58Q48.02-11.78 48.03-12.85 48.05-13.93 48.05-14.83L48.05-14.83Q48.05-17.05 47.34-18.59 46.62-20.13 45.21-20.94 43.8-21.75 41.67-21.75L41.67-21.75Q38.52-21.75 36.95-19.93 35.37-18.1 35.37-14.7L35.37-14.7 35.37-12.38 35.4-11.88 35.4-9.55Q35.4-8.03 35.85-6.8 36.3-5.58 37.26-4.69 38.22-3.8 39.71-3.34 41.2-2.88 43.25-2.88L43.25-2.88Q45.62-2.88 47.67-3.5 49.72-4.13 51.52-5.2L51.52-5.2 51.15-1.7Q49.52-0.68 47.37-0.06 45.22 0.55 42.6 0.55ZM50.85-13.63L50.85-10.58 33.5-10.58 33.5-13.63 50.85-13.63ZM61.47-33.13L61.47 0 57.45 0 57.45-33.13 61.47-33.13ZM86.69-15.8L86.69 0 82.67 0 82.84-5.93 82.69-6.55 82.69-14.33 82.72-15.75Q82.72-18.73 81.21-20.15 79.69-21.58 76.42-21.58L76.42-21.58Q73.79-21.58 71.61-20.83 69.42-20.08 67.72-19.07L67.72-19.07 68.09-22.53Q69.04-23.1 70.36-23.66 71.67-24.23 73.36-24.6 75.04-24.98 77.07-24.98L77.07-24.98Q79.69-24.98 81.53-24.34 83.37-23.7 84.51-22.5 85.64-21.3 86.17-19.6 86.69-17.9 86.69-15.8L86.69-15.8ZM74.27 0.53L74.27 0.53Q70.64 0.53 68.71-1.24 66.77-3 66.77-6.28L66.77-6.28 66.77-7Q66.77-10.38 68.86-12.04 70.94-13.7 75.49-14.35L75.49-14.35 83.22-15.45 83.44-12.5 75.99-11.43Q73.19-11.03 71.99-10.06 70.79-9.1 70.79-7.23L70.79-7.23 70.79-6.83Q70.79-4.9 71.98-3.88 73.17-2.85 75.54-2.85L75.54-2.85Q77.64-2.85 79.14-3.58 80.64-4.3 81.57-5.53 82.49-6.75 82.82-8.25L82.82-8.25 83.44-5.5 82.67-5.5Q82.32-3.9 81.36-2.53 80.39-1.15 78.67-0.31 76.94 0.53 74.27 0.53ZM113.27-15.63L113.27 0 109.22 0 109.22-15.18Q109.22-17.15 108.68-18.57 108.14-20 106.93-20.79 105.72-21.58 103.62-21.58L103.62-21.58Q101.69-21.58 100.28-20.85 98.87-20.13 97.99-18.89 97.12-17.65 96.77-16.07L96.77-16.07 96.04-18.95 96.92-18.95Q97.32-20.6 98.32-21.96 99.32-23.33 101-24.14 102.69-24.95 105.14-24.95L105.14-24.95Q108.04-24.95 109.83-23.85 111.62-22.75 112.44-20.69 113.27-18.63 113.27-15.63L113.27-15.63ZM96.94-18.32L96.94 0 92.89 0 92.89-24.4 96.94-24.4 96.77-18.55 96.94-18.32ZM124.36-24.4L124.36-3.33 120.31-3.33 120.31-24.4 124.36-24.4ZM122.34-28.4L122.34-28.4Q121.09-28.4 120.48-29.06 119.86-29.73 119.86-30.88L119.86-30.88 119.86-31Q119.86-32.18 120.48-32.83 121.09-33.48 122.34-33.48L122.34-33.48Q123.59-33.48 124.21-32.83 124.84-32.18 124.84-31L124.84-31 124.84-30.88Q124.84-29.7 124.21-29.05 123.59-28.4 122.34-28.4ZM117.34 8.93L117.34 8.93Q116.26 8.93 115.31 8.74 114.36 8.55 113.69 8.3L113.69 8.3 113.34 4.95Q114.04 5.28 114.8 5.44 115.56 5.6 116.39 5.6L116.39 5.6Q118.64 5.6 119.48 4.39 120.31 3.18 120.31 0.9L120.31 0.9 120.31-6.83 124.36-6.83 124.36 1.1Q124.36 3.55 123.69 5.3 123.01 7.05 121.46 7.99 119.91 8.93 117.34 8.93ZM149.56-15.8L149.56 0 145.54 0 145.71-5.93 145.56-6.55 145.56-14.33 145.59-15.75Q145.59-18.73 144.07-20.15 142.56-21.58 139.29-21.58L139.29-21.58Q136.66-21.58 134.47-20.83 132.29-20.08 130.59-19.07L130.59-19.07 130.96-22.53Q131.91-23.1 133.22-23.66 134.54-24.23 136.22-24.6 137.91-24.98 139.94-24.98L139.94-24.98Q142.56-24.98 144.4-24.34 146.24-23.7 147.37-22.5 148.51-21.3 149.04-19.6 149.56-17.9 149.56-15.8L149.56-15.8ZM137.14 0.53L137.14 0.53Q133.51 0.53 131.57-1.24 129.64-3 129.64-6.28L129.64-6.28 129.64-7Q129.64-10.38 131.72-12.04 133.81-13.7 138.36-14.35L138.36-14.35 146.09-15.45 146.31-12.5 138.86-11.43Q136.06-11.03 134.86-10.06 133.66-9.1 133.66-7.23L133.66-7.23 133.66-6.83Q133.66-4.9 134.85-3.88 136.04-2.85 138.41-2.85L138.41-2.85Q140.51-2.85 142.01-3.58 143.51-4.3 144.44-5.53 145.36-6.75 145.69-8.25L145.69-8.25 146.31-5.5 145.54-5.5Q145.19-3.9 144.22-2.53 143.26-1.15 141.54-0.31 139.81 0.53 137.14 0.53ZM168.26-31.95L172.41-31.95 172.41 0 168.26 0 168.26-31.95ZM187.33 0L170.48 0 170.48-3.53 187.33-3.53 187.33 0ZM202.38 0.55L202.38 0.55Q196.8 0.55 193.98-2.18 191.15-4.9 191.15-9.98L191.15-9.98 191.15-14.33Q191.15-19.48 193.78-22.26 196.4-25.05 201.45-25.05L201.45-25.05Q204.85-25.05 207.13-23.79 209.4-22.53 210.55-20.2 211.7-17.88 211.7-14.65L211.7-14.65 211.7-13.75Q211.7-12.95 211.64-12.15 211.58-11.35 211.48-10.58L211.48-10.58 207.75-10.58Q207.8-11.78 207.82-12.85 207.83-13.93 207.83-14.83L207.83-14.83Q207.83-17.05 207.12-18.59 206.4-20.13 204.99-20.94 203.58-21.75 201.45-21.75L201.45-21.75Q198.3-21.75 196.73-19.93 195.15-18.1 195.15-14.7L195.15-14.7 195.15-12.38 195.18-11.88 195.18-9.55Q195.18-8.03 195.63-6.8 196.08-5.58 197.04-4.69 198-3.8 199.49-3.34 200.98-2.88 203.03-2.88L203.03-2.88Q205.4-2.88 207.45-3.5 209.5-4.13 211.3-5.2L211.3-5.2 210.93-1.7Q209.3-0.68 207.15-0.06 205 0.55 202.38 0.55ZM210.63-13.63L210.63-10.58 193.28-10.58 193.28-13.63 210.63-13.63ZM229.13 0.53L229.13 0.53Q226.88 0.53 225.21-0.23 223.55-0.98 222.53-2.38 221.5-3.78 221.15-5.63L221.15-5.63 219.8-5.63 221.03-9.43Q221.15-7.23 222.06-5.76 222.98-4.3 224.5-3.58 226.03-2.85 227.95-2.85L227.95-2.85Q231-2.85 232.61-4.65 234.23-6.45 234.23-10L234.23-10 234.23-14.58Q234.23-18.05 232.6-19.85 230.98-21.65 227.88-21.65L227.88-21.65Q226.03-21.65 224.6-20.93 223.18-20.2 222.24-18.95 221.3-17.7 220.95-16.1L220.95-16.1 220.03-18.93 221.18-18.93Q221.55-20.6 222.51-21.96 223.48-23.33 225.15-24.14 226.83-24.95 229.3-24.95L229.3-24.95Q233.7-24.95 236-22.21 238.3-19.48 238.3-14.28L238.3-14.28 238.3-10.23Q238.3-4.98 235.96-2.23 233.63 0.53 229.13 0.53ZM220.98-5.9L221.15 0 217.1 0 217.1-33.13 221.13-33.13 221.13-25.18 221-18.18 221.03-17.4 221.03-7.2 220.98-5.9ZM248.07-24.4L248.07 0 244.02 0 244.02-24.4 248.07-24.4ZM246.05-28.4L246.05-28.4Q244.8-28.4 244.19-29.06 243.57-29.73 243.57-30.88L243.57-30.88 243.57-31Q243.57-32.18 244.19-32.83 244.8-33.48 246.05-33.48L246.05-33.48Q247.3-33.48 247.92-32.83 248.55-32.18 248.55-31L248.55-31 248.55-30.88Q248.55-29.7 247.92-29.05 247.3-28.4 246.05-28.4ZM275.15-15.63L275.15 0 271.1 0 271.1-15.18Q271.1-17.15 270.56-18.57 270.02-20 268.81-20.79 267.6-21.58 265.5-21.58L265.5-21.58Q263.57-21.58 262.17-20.85 260.77-20.13 259.91-18.89 259.05-17.65 258.7-16.07L258.7-16.07 257.8-18.95 258.85-18.95Q259.22-20.6 260.22-21.96 261.22-23.33 262.91-24.14 264.6-24.95 267.02-24.95L267.02-24.95Q269.92-24.95 271.71-23.85 273.5-22.75 274.32-20.69 275.15-18.63 275.15-15.63L275.15-15.63ZM258.82-17.85L258.82 0 254.77 0 254.77-33.13 258.8-33.13 258.8-25.18 258.67-18.18 258.82-17.85ZM297.84-13.45L297.41 0 293.39 0 294.62-31.95 301.04-31.95 308.62-8.85 308.96-8.85 316.54-31.95 322.99-31.95 324.21 0 320.19 0 319.74-13.48 319.31-27.63 318.87-27.63 310.96-3.68 306.64-3.68 298.74-27.63 298.29-27.63 297.84-13.45ZM330.46-8.78L330.46-24.4 334.49-24.4 334.49-9.22Q334.49-7.3 335.02-5.86 335.56-4.42 336.79-3.64 338.01-2.85 340.09-2.85L340.09-2.85Q342.04-2.85 343.44-3.56 344.84-4.28 345.72-5.53 346.61-6.78 346.94-8.35L346.94-8.35 347.66-5.48 346.79-5.48Q346.41-3.83 345.41-2.46 344.41-1.1 342.72-0.29 341.04 0.53 338.56 0.53L338.56 0.53Q335.69 0.53 333.9-0.56 332.11-1.65 331.29-3.74 330.46-5.83 330.46-8.78L330.46-8.78ZM346.76-6.1L346.76-24.4 350.81-24.4 350.81 0 346.76 0 346.94-5.85 346.76-6.1ZM365.46 0.53L365.46 0.53Q361.06 0.53 358.76-2.2 356.46-4.93 356.46-10.15L356.46-10.15 356.46-14.18Q356.46-19.43 358.78-22.19 361.11-24.95 365.63-24.95L365.63-24.95Q367.88-24.95 369.53-24.19 371.18-23.43 372.21-22.05 373.23-20.68 373.58-18.8L373.58-18.8 374.91-18.8 373.71-15.08Q373.63-17.23 372.75-18.69 371.86-20.15 370.35-20.9 368.83-21.65 366.88-21.65L366.88-21.65Q363.78-21.65 362.15-19.85 360.51-18.05 360.51-14.55L360.51-14.55 360.51-9.9Q360.51-6.45 362.15-4.65 363.78-2.85 366.88-2.85L366.88-2.85Q368.73-2.85 370.16-3.56 371.58-4.28 372.52-5.54 373.46-6.8 373.81-8.4L373.81-8.4 374.81-5.5 373.61-5.5Q373.26-3.85 372.27-2.48 371.28-1.1 369.62-0.29 367.96 0.53 365.46 0.53ZM377.66-33.13L377.66 0 373.61 0 373.78-5.9 373.71-7.2 373.71-17.4 373.73-18.25 373.63-25.18 373.63-33.13 377.66-33.13ZM402.76-15.8L402.76 0 398.73 0 398.91-5.93 398.76-6.55 398.76-14.33 398.78-15.75Q398.78-18.73 397.27-20.15 395.76-21.58 392.48-21.58L392.48-21.58Q389.86-21.58 387.67-20.83 385.48-20.08 383.78-19.07L383.78-19.07 384.16-22.53Q385.11-23.1 386.42-23.66 387.73-24.23 389.42-24.6 391.11-24.98 393.13-24.98L393.13-24.98Q395.76-24.98 397.59-24.34 399.43-23.7 400.57-22.5 401.71-21.3 402.23-19.6 402.76-17.9 402.76-15.8L402.76-15.8ZM390.33 0.53L390.33 0.53Q386.71 0.53 384.77-1.24 382.83-3 382.83-6.28L382.83-6.28 382.83-7Q382.83-10.38 384.92-12.04 387.01-13.7 391.56-14.35L391.56-14.35 399.28-15.45 399.51-12.5 392.06-11.43Q389.26-11.03 388.06-10.06 386.86-9.1 386.86-7.23L386.86-7.23 386.86-6.83Q386.86-4.9 388.04-3.88 389.23-2.85 391.61-2.85L391.61-2.85Q393.71-2.85 395.21-3.58 396.71-4.3 397.63-5.53 398.56-6.75 398.88-8.25L398.88-8.25 399.51-5.5 398.73-5.5Q398.38-3.9 397.42-2.53 396.46-1.15 394.73-0.31 393.01 0.53 390.33 0.53ZM429.33-15.63L429.33 0 425.28 0 425.28-15.18Q425.28-17.15 424.74-18.57 424.2-20 422.99-20.79 421.78-21.58 419.68-21.58L419.68-21.58Q417.75-21.58 416.35-20.85 414.95-20.13 414.09-18.89 413.23-17.65 412.88-16.07L412.88-16.07 411.98-18.95 413.03-18.95Q413.4-20.6 414.4-21.96 415.4-23.33 417.09-24.14 418.78-24.95 421.2-24.95L421.2-24.95Q424.1-24.95 425.89-23.85 427.68-22.75 428.5-20.69 429.33-18.63 429.33-15.63L429.33-15.63ZM413-17.85L413 0 408.95 0 408.95-33.13 412.98-33.13 412.98-25.18 412.85-18.18 413-17.85ZM435.13-6.78L435.13-6.78 439.03-6.78Q439.1-6.3 439.19-5.54 439.28-4.78 439.28-3.9L439.28-3.9Q439.28-0.9 438.44 1.65 437.6 4.2 435.58 6.58L435.58 6.58 432.78 5.68Q434.08 3.6 434.7 1.33 435.33-0.95 435.33-3.73L435.33-3.73Q435.33-4.55 435.28-5.29 435.23-6.03 435.13-6.78ZM457.5-31.95L461.65-31.95 461.65 0 457.5 0 457.5-31.95ZM476.8-31.95L480.95-31.95 480.95 0 476.8 0 476.8-31.95ZM478.45-14.73L459.87-14.73 459.87-18.23 478.45-18.23 478.45-14.73ZM492.14-24.4L492.14 0 488.09 0 488.09-24.4 492.14-24.4ZM490.12-28.4L490.12-28.4Q488.87-28.4 488.26-29.06 487.64-29.73 487.64-30.88L487.64-30.88 487.64-31Q487.64-32.18 488.26-32.83 488.87-33.48 490.12-33.48L490.12-33.48Q491.37-33.48 491.99-32.83 492.62-32.18 492.62-31L492.62-31 492.62-30.88Q492.62-29.7 491.99-29.05 491.37-28.4 490.12-28.4ZM506.89 0.53L506.89 0.53Q502.49 0.53 500.19-2.2 497.89-4.93 497.89-10.15L497.89-10.15 497.89-14.18Q497.89-19.43 500.22-22.19 502.54-24.95 507.07-24.95L507.07-24.95Q509.32-24.95 510.97-24.19 512.62-23.43 513.64-22.05 514.67-20.68 515.02-18.8L515.02-18.8 516.34-18.8 515.14-15.08Q515.07-17.23 514.18-18.69 513.29-20.15 511.78-20.9 510.27-21.65 508.32-21.65L508.32-21.65Q505.22-21.65 503.58-19.85 501.94-18.05 501.94-14.55L501.94-14.55 501.94-9.9Q501.94-6.45 503.58-4.65 505.22-2.85 508.32-2.85L508.32-2.85Q510.17-2.85 511.59-3.56 513.02-4.28 513.95-5.54 514.89-6.8 515.24-8.4L515.24-8.4 516.24-5.5 515.04-5.5Q514.69-3.85 513.7-2.48 512.72-1.1 511.05-0.29 509.39 0.53 506.89 0.53ZM519.09-33.13L519.09 0 515.04 0 515.22-5.9 515.14-7.2 515.14-17.4 515.17-18.25 515.07-25.18 515.07-33.13 519.09-33.13ZM525.39-8.78L525.39-24.4 529.41-24.4 529.41-9.22Q529.41-7.3 529.95-5.86 530.49-4.42 531.71-3.64 532.94-2.85 535.01-2.85L535.01-2.85Q536.96-2.85 538.36-3.56 539.76-4.28 540.65-5.53 541.54-6.78 541.86-8.35L541.86-8.35 542.59-5.48 541.71-5.48Q541.34-3.83 540.34-2.46 539.34-1.1 537.65-0.29 535.96 0.53 533.49 0.53L533.49 0.53Q530.61 0.53 528.83-0.56 527.04-1.65 526.21-3.74 525.39-5.83 525.39-8.78L525.39-8.78ZM541.69-6.1L541.69-24.4 545.74-24.4 545.74 0 541.69 0 541.86-5.85 541.69-6.1ZM564.36 0.53L564.36 0.53Q562.11 0.53 560.46-0.23 558.81-0.98 557.79-2.38 556.76-3.78 556.41-5.63L556.41-5.63 555.09-5.63 556.26-9.43Q556.36-7.23 557.25-5.76 558.14-4.3 559.66-3.58 561.19-2.85 563.11-2.85L563.11-2.85Q566.19-2.85 567.82-4.65 569.46-6.45 569.46-9.93L569.46-9.93 569.46-14.6Q569.46-18.05 567.84-19.85 566.21-21.65 563.11-21.65L563.11-21.65Q561.26-21.65 559.84-20.93 558.41-20.2 557.47-18.95 556.54-17.7 556.19-16.1L556.19-16.1 555.19-18.93 556.36-18.93Q556.76-20.6 557.72-21.96 558.69-23.33 560.37-24.14 562.06-24.95 564.54-24.95L564.54-24.95Q568.94-24.95 571.24-22.21 573.54-19.48 573.54-14.28L573.54-14.28 573.54-10.23Q573.54-4.98 571.22-2.23 568.91 0.53 564.36 0.53ZM556.36 0.68L556.36 8.6 552.34 8.6 552.34-24.4 556.39-24.4 556.21-18.53 556.26-17.28 556.26-7 556.24-6.18 556.36 0.68ZM591.68-31.95L595.83-31.95 595.83 0 591.68 0 591.68-31.95ZM610.76 0L593.91 0 593.91-3.53 610.76-3.53 610.76 0ZM625.8 0.55L625.8 0.55Q620.23 0.55 617.4-2.18 614.58-4.9 614.58-9.98L614.58-9.98 614.58-14.33Q614.58-19.48 617.2-22.26 619.83-25.05 624.88-25.05L624.88-25.05Q628.28-25.05 630.55-23.79 632.83-22.53 633.98-20.2 635.13-17.88 635.13-14.65L635.13-14.65 635.13-13.75Q635.13-12.95 635.07-12.15 635-11.35 634.9-10.58L634.9-10.58 631.18-10.58Q631.23-11.78 631.24-12.85 631.25-13.93 631.25-14.83L631.25-14.83Q631.25-17.05 630.54-18.59 629.83-20.13 628.42-20.94 627-21.75 624.88-21.75L624.88-21.75Q621.73-21.75 620.15-19.93 618.58-18.1 618.58-14.7L618.58-14.7 618.58-12.38 618.6-11.88 618.6-9.55Q618.6-8.03 619.05-6.8 619.5-5.58 620.47-4.69 621.43-3.8 622.92-3.34 624.4-2.88 626.45-2.88L626.45-2.88Q628.83-2.88 630.88-3.5 632.93-4.13 634.73-5.2L634.73-5.2 634.35-1.7Q632.73-0.68 630.58-0.06 628.43 0.55 625.8 0.55ZM634.05-13.63L634.05-10.58 616.7-10.58 616.7-13.63 634.05-13.63ZM652.55 0.53L652.55 0.53Q650.3 0.53 648.64-0.23 646.98-0.98 645.95-2.38 644.93-3.78 644.58-5.63L644.58-5.63 643.23-5.63 644.45-9.43Q644.58-7.23 645.49-5.76 646.4-4.3 647.93-3.58 649.45-2.85 651.38-2.85L651.38-2.85Q654.43-2.85 656.04-4.65 657.65-6.45 657.65-10L657.65-10 657.65-14.58Q657.65-18.05 656.03-19.85 654.4-21.65 651.3-21.65L651.3-21.65Q649.45-21.65 648.03-20.93 646.6-20.2 645.66-18.95 644.73-17.7 644.38-16.1L644.38-16.1 643.45-18.93 644.6-18.93Q644.98-20.6 645.94-21.96 646.9-23.33 648.58-24.14 650.25-24.95 652.73-24.95L652.73-24.95Q657.13-24.95 659.43-22.21 661.73-19.48 661.73-14.28L661.73-14.28 661.73-10.23Q661.73-4.98 659.39-2.23 657.05 0.53 652.55 0.53ZM644.4-5.9L644.58 0 640.53 0 640.53-33.13 644.55-33.13 644.55-25.18 644.43-18.18 644.45-17.4 644.45-7.2 644.4-5.9ZM671.5-24.4L671.5 0 667.45 0 667.45-24.4 671.5-24.4ZM669.47-28.4L669.47-28.4Q668.22-28.4 667.61-29.06 667-29.73 667-30.88L667-30.88 667-31Q667-32.18 667.61-32.83 668.22-33.48 669.47-33.48L669.47-33.48Q670.72-33.48 671.35-32.83 671.97-32.18 671.97-31L671.97-31 671.97-30.88Q671.97-29.7 671.35-29.05 670.72-28.4 669.47-28.4ZM698.57-15.63L698.57 0 694.52 0 694.52-15.18Q694.52-17.15 693.98-18.57 693.45-20 692.23-20.79 691.02-21.58 688.92-21.58L688.92-21.58Q687-21.58 685.6-20.85 684.2-20.13 683.33-18.89 682.47-17.65 682.12-16.07L682.12-16.07 681.22-18.95 682.27-18.95Q682.65-20.6 683.65-21.96 684.65-23.33 686.33-24.14 688.02-24.95 690.45-24.95L690.45-24.95Q693.35-24.95 695.13-23.85 696.92-22.75 697.75-20.69 698.57-18.63 698.57-15.63L698.57-15.63ZM682.25-17.85L682.25 0 678.2 0 678.2-33.13 682.22-33.13 682.22-25.18 682.1-18.18 682.25-17.85ZM730.62 0L730.62 0 720.17 0 720.17-3.43 730.22-3.43Q733.47-3.43 734.83-4.81 736.19-6.2 736.19-8.65L736.19-8.65 736.19-9.55Q736.19-12.05 734.8-13.43 733.42-14.8 729.97-14.8L729.97-14.8 720.19-14.8 720.19-18.07 729.92-18.07Q732.99-18.07 734.3-19.41 735.62-20.75 735.62-23.13L735.62-23.13 735.62-23.58Q735.62-25.93 734.35-27.24 733.09-28.55 729.89-28.55L729.89-28.55 720.09-28.55 720.09-31.95 730.27-31.95Q735.37-31.95 737.57-29.93 739.77-27.9 739.77-24.23L739.77-24.23 739.77-23.73Q739.77-20.8 738.37-19.13 736.97-17.45 734.02-17.13L734.02-17.13 733.99-16.98Q737.37-16.48 738.89-14.63 740.42-12.78 740.42-9.47L740.42-9.47 740.42-8.45Q740.42-4.48 738.12-2.24 735.82 0 730.62 0ZM721.44-31.95L721.44 0 717.34 0 717.34-31.95 721.44-31.95ZM764.41-15.8L764.41 0 760.39 0 760.56-5.93 760.41-6.55 760.41-14.33 760.44-15.75Q760.44-18.73 758.93-20.15 757.41-21.58 754.14-21.58L754.14-21.58Q751.51-21.58 749.33-20.83 747.14-20.08 745.44-19.07L745.44-19.07 745.81-22.53Q746.76-23.1 748.08-23.66 749.39-24.23 751.08-24.6 752.76-24.98 754.79-24.98L754.79-24.98Q757.41-24.98 759.25-24.34 761.09-23.7 762.23-22.5 763.36-21.3 763.89-19.6 764.41-17.9 764.41-15.8L764.41-15.8ZM751.99 0.53L751.99 0.53Q748.36 0.53 746.43-1.24 744.49-3 744.49-6.28L744.49-6.28 744.49-7Q744.49-10.38 746.58-12.04 748.66-13.7 753.21-14.35L753.21-14.35 760.94-15.45 761.16-12.5 753.71-11.43Q750.91-11.03 749.71-10.06 748.51-9.1 748.51-7.23L748.51-7.23 748.51-6.83Q748.51-4.9 749.7-3.88 750.89-2.85 753.26-2.85L753.26-2.85Q755.36-2.85 756.86-3.58 758.36-4.3 759.29-5.53 760.21-6.75 760.54-8.25L760.54-8.25 761.16-5.5 760.39-5.5Q760.04-3.9 759.08-2.53 758.11-1.15 756.39-0.31 754.66 0.53 751.99 0.53ZM774.74-24.4L774.74 0 770.69 0 770.69-24.4 774.74-24.4ZM772.71-28.4L772.71-28.4Q771.46-28.4 770.85-29.06 770.24-29.73 770.24-30.88L770.24-30.88 770.24-31Q770.24-32.18 770.85-32.83 771.46-33.48 772.71-33.48L772.71-33.48Q773.96-33.48 774.59-32.83 775.21-32.18 775.21-31L775.21-31 775.21-30.88Q775.21-29.7 774.59-29.05 773.96-28.4 772.71-28.4ZM790.61-13.6L802.13 0 797.28 0 787.63-11.38 785.06-11.38 785.06-14.53 787.63-14.53 796.88-24.4 801.68-24.4 790.61-12.63 790.61-13.6ZM785.46-33.13L785.46 0 781.43 0 781.43-33.13 785.46-33.13Z" opacity="1" transform="matrix(1,0,0,1,0,0)" fill="#000000" class="slogan-text-1" data-fill-palette-color="secondary" id="text-1"></path></svg></g></svg></g></svg></g></svg></g><g transform="matrix(1,0,0,1,102.98143581579798,0)"><svg viewBox="0 0 191.53472836840396 171.2491993693515" height="171.2491993693515" width="191.53472836840396"><g><svg xmlns="http://www.w3.org/2000/svg" xmlns:xlink="http://www.w3.org/1999/xlink" version="1.1" x="0" y="0" viewBox="13.902674234277693 17.71499999847626 72.22095359302389 64.57200000152375" enable-background="new 0 0 100 100" xml:space="preserve" height="171.2491993693515" width="191.53472836840396" class="icon-icon-0" data-fill-palette-color="accent" id="icon-0"><path d="M85.271 18.592C79.5 19.389 73.027 19.972 66.029 20.332L66.402 18.625A0.75 0.75 0 0 0 65.67 17.715H62.214A0.75 0.75 0 0 0 61.464 18.465V20.53A326 326 0 0 1 38.536 20.53V18.465A0.75 0.75 0 0 0 37.786 17.715H34.331A0.75 0.75 0 0 0 33.598 18.624L33.97 20.332C26.972 19.972 20.499 19.389 14.73 18.592A0.751 0.751 0 0 0 14.525 20.079C20.45 20.896 27.104 21.492 34.302 21.852L34.829 24.268H33.917A0.75 0.75 0 0 0 33.167 25.018C33.167 33.171 30.151 38.649 27.333 38.649A0.75 0.75 0 0 0 26.583 39.399V81.537C26.583 81.951 26.919 82.287 27.333 82.287H72.667A0.75 0.75 0 0 0 73.417 81.537V39.398A0.75 0.75 0 0 0 72.667 38.648C69.85 38.647 66.833 33.169 66.833 25.017A0.75 0.75 0 0 0 66.083 24.267H65.171L65.697 21.851C72.896 21.491 79.551 20.895 85.476 20.078A0.75 0.75 0 1 0 85.271 18.592M62.964 19.215H64.739L63.635 24.268H62.963zM38.536 22.031C42.3 22.164 46.147 22.238 50.001 22.238S57.7 22.164 61.464 22.031V24.267H60.419A0.75 0.75 0 0 0 59.669 25.017C59.669 29.723 55.333 33.552 50.003 33.552 44.671 33.552 40.335 29.723 40.335 25.017A0.75 0.75 0 0 0 39.585 24.267H38.536zM37.036 19.215V24.268H36.364L35.261 19.215zM71.917 80.786H28.083V79.22H71.917zM65.343 25.768C65.514 33.373 68.288 39.345 71.917 40.075V77.72H28.083V40.074C31.712 39.345 34.487 33.374 34.659 25.767H38.865C39.294 30.951 44.125 35.052 50.003 35.052 55.878 35.052 60.71 30.95 61.138 25.767H65.343zM56.491 50.439H53.225L55.536 44.958A0.752 0.752 0 0 0 54.845 43.916H47.11A0.75 0.75 0 0 0 46.369 44.551L44.768 54.822A0.75 0.75 0 0 0 44.946 55.43 0.72 0.72 0 0 0 45.525 55.687L47.951 55.637 46.231 65.586A0.748 0.748 0 0 0 47.597 66.125L57.118 51.6A0.748 0.748 0 0 0 56.491 50.439M48.325 62.279L49.585 54.997A0.752 0.752 0 0 0 48.845 54.119H48.83L46.39 54.169 47.753 45.416H53.716L51.404 50.898A0.752 0.752 0 0 0 52.095 51.939H55.103z" fill="#000000" data-fill-palette-color="accent"></path></svg></g></svg></g><g></g></svg></g><defs></defs></svg><rect width="269.7133510792965" height="247.2" fill="none" stroke="none" visibility="hidden"></rect></g></svg></g></svg>